<svg id="Capa_1" enable-background="new 0 0 512 512" height="512" viewBox="0 0 512 512" width="512" xmlns="http://www.w3.org/2000/svg" xmlns:xlink="http://www.w3.org/1999/xlink"><linearGradient id="SVGID_1_" gradientUnits="userSpaceOnUse" x1="376" x2="376" y1="512" y2="270"><stop offset="0" stop-color="#c3ffe8"/><stop offset=".9973" stop-color="#f0fff4"/></linearGradient><linearGradient id="SVGID_2_" gradientUnits="userSpaceOnUse" x1="256" x2="256" y1="450" y2="0"><stop offset="0" stop-color="#00b59c"/><stop offset="1" stop-color="#9cffac"/></linearGradient><g><g><g><path d="m382.973 330.762-56.367-56.367c-5.859-5.859-15.352-5.859-21.211 0s-5.859 15.352 0 21.211l56.367 56.367c38.203 38.203 59.238 91.004 59.238 145.027 0 8.291 6.709 15 15 15s15-6.709 15-15c0-62.051-24.155-122.366-68.027-166.238z" fill="url(#SVGID_1_)"/></g></g><g><g><path d="m460.653 225c10.342-9.683 20.347-24.009 20.347-45 0-33.091-26.909-60-60-60-23.055 0-58.218 13.467-93.46 33.461 19.993-35.243 33.46-70.406 33.46-93.461 0-33.091-26.909-60-60-60-20.991 0-35.317 10.005-45 20.347-9.683-10.342-24.009-20.347-45-20.347-33.091 0-60 26.909-60 60 0 23.055 13.468 58.218 33.461 93.461-35.243-19.994-70.406-33.461-93.461-33.461-33.091 0-60 26.909-60 60 0 20.991 10.005 35.317 20.347 45-10.342 9.683-20.347 24.009-20.347 45 0 33.091 26.909 60 60 60 23.055 0 58.219-13.467 93.461-33.46-19.993 35.242-33.461 70.405-33.461 93.46 0 33.091 26.909 60 60 60 20.991 0 35.317-10.005 45-20.347 9.683 10.342 24.009 20.347 45 20.347 33.091 0 60-26.909 60-60 0-23.055-13.467-58.218-33.46-93.46 35.242 19.993 70.405 33.46 93.46 33.46 33.091 0 60-26.909 60-60 0-20.991-10.005-35.317-20.347-45z" fill="url(#SVGID_2_)"/></g></g></g></svg>